<svg width="39" height="38" viewBox="0 0 39 38" fill="none" xmlns="http://www.w3.org/2000/svg">
<path d="M14.4312 11.08C16.1375 11.2328 17.8312 11.5038 19.5 11.8911C21.1688 11.5038 22.8625 11.2328 24.5688 11.08V11.08C29.6376 11.08 32.172 15.0559 32.172 20.584C32.172 27.5825 26.4985 33.256 19.5 33.256C12.5015 33.256 6.82806 27.5825 6.82806 20.584C6.82806 15.0543 9.36245 11.08 14.4312 11.08" stroke="#518AE0" stroke-width="2.5" stroke-linecap="round" stroke-linejoin="round"/>
<path fill-rule="evenodd" clip-rule="evenodd" d="M22.8122 11.0801H19.8944V8.16235C19.894 6.83581 20.4207 5.56347 21.3585 4.62532C22.2964 3.68717 23.5686 3.1601 24.8951 3.1601H27.8144V6.07781C27.8135 8.84011 25.5745 11.0792 22.8122 11.0801V11.0801Z" stroke="#518AE0" stroke-width="2.5" stroke-linecap="round" stroke-linejoin="round"/>
<path d="M19.8944 11.08V10.288C19.8944 8.10101 18.1215 6.32806 15.9345 6.32806H15.1425" stroke="#518AE0" stroke-width="2.5" stroke-linecap="round" stroke-linejoin="round"/>
</svg>
