<svg width="39" height="38" viewBox="0 0 39 38" fill="none" xmlns="http://www.w3.org/2000/svg">
<path fill-rule="evenodd" clip-rule="evenodd" d="M20.4963 5.78472C19.9153 6.25483 19.0847 6.25483 18.5037 5.78472C17.2337 4.77127 15.534 4.47691 13.9972 5.00425C12.4605 5.5316 11.2996 6.80756 10.9195 8.38722C10.7851 9.00183 10.3039 9.48118 9.68874 9.61323C7.88039 9.98026 6.37317 11.2229 5.66814 12.9282C4.96312 14.6334 5.1527 16.5776 6.17386 18.1145C6.54182 18.6533 6.54182 19.3625 6.17386 19.9013C5.1527 21.4382 4.96312 23.3824 5.66814 25.0876C6.37317 26.7928 7.88039 28.0355 9.68874 28.4026C10.3039 28.5346 10.7851 29.0139 10.9195 29.6286C11.3017 31.2068 12.4634 32.4807 13.9998 33.0063C15.5363 33.532 17.2348 33.2366 18.5037 32.2231C19.0847 31.753 19.9153 31.753 20.4963 32.2231C21.7674 33.2366 23.4683 33.53 25.0054 33.0009C26.5424 32.4718 27.7024 31.1938 28.0805 29.6127C28.2149 28.9981 28.6961 28.5188 29.3113 28.3867C31.1198 28.0195 32.6271 26.7763 33.3319 25.0707C34.0366 23.3651 33.8464 21.4206 32.8245 19.8838C32.458 19.3458 32.458 18.6383 32.8245 18.1003C33.8464 16.5635 34.0366 14.619 33.3319 12.9134C32.6271 11.2078 31.1198 9.96463 29.3113 9.59739C28.6961 9.46534 28.2149 8.98599 28.0805 8.37138C27.6983 6.79309 26.5366 5.51925 25.0001 4.99361C23.4637 4.46798 21.7652 4.76334 20.4963 5.7768V5.78472Z" stroke="#518AE0" stroke-width="2.5" stroke-linecap="round" stroke-linejoin="round"/>
<path d="M19.5 6.13477V31.8636" stroke="#518AE0" stroke-width="2.5" stroke-linecap="round" stroke-linejoin="round"/>
<path d="M24.252 25.336C24.252 23.5863 25.6703 22.168 27.42 22.168" stroke="#518AE0" stroke-width="2.5" stroke-linecap="round" stroke-linejoin="round"/>
<path d="M14.748 12.664C14.748 14.4136 13.3297 15.832 11.58 15.832" stroke="#518AE0" stroke-width="2.5" stroke-linecap="round" stroke-linejoin="round"/>
<path d="M14.748 25.336C14.748 23.5863 13.3297 22.168 11.58 22.168" stroke="#518AE0" stroke-width="2.5" stroke-linecap="round" stroke-linejoin="round"/>
<path d="M24.252 12.664C24.252 14.4136 25.6703 15.832 27.42 15.832" stroke="#518AE0" stroke-width="2.5" stroke-linecap="round" stroke-linejoin="round"/>
</svg>
