<svg width="39" height="38" viewBox="0 0 39 38" fill="none" xmlns="http://www.w3.org/2000/svg">
<path d="M25.1865 22.7747L25.6079 22.1411C27.3834 19.4793 30.7206 18.3349 33.7559 19.3469" stroke="#518AE0" stroke-width="2.5" stroke-linecap="round" stroke-linejoin="round"/>
<path d="M16.435 20.2561L18.3358 10.7775L20.4108 11.815C21.1813 12.1997 22.1175 11.9529 22.5983 11.2384L24.4104 8.51872C24.8628 7.83896 24.7733 6.93455 24.1965 6.35657L21.9156 4.07562C20.858 3.01778 19.1683 2.94085 18.019 3.89821C12.6221 8.39517 8.58594 14.3079 6.36394 20.9721L5.41355 23.8011C4.93947 25.2302 5.45356 26.8014 6.68074 27.6739L9.10584 29.4068C13.7858 32.7505 19.8464 33.4806 25.1865 31.3441L26.9004 34.7718" stroke="#518AE0" stroke-width="2.5" stroke-linecap="round" stroke-linejoin="round"/>
<path d="M25.1865 21.0592C22.0729 18.984 18.0169 18.984 14.9033 21.0592" stroke="#518AE0" stroke-width="2.5" stroke-linecap="round" stroke-linejoin="round"/>
</svg>
